{"title":"Force (2011) 1CD Rip PDVD MP3 Sohi Mastitorrents","uid":6715060,"size":729663829,"categoryP":"video","categoryS":"movies","magnet":"?xt=urn:btih:1a9d0883bd1f5808d18e4c0202c1bb7efb64f370&amp;dn=Force+%282011%29+1CD+Rip+PDVD+MP3+Sohi+Mastitorrents&amp;tr=udp%3A%2F%2Ftracker.openbittorrent.com%3A80&amp;tr=udp%3A%2F%2Fopen.demonii.com%3A1337&amp;tr=udp%3A%2F%2Ftracker.coppersurfer.tk%3A6969&amp;tr=udp%3A%2F%2Fexodus.desync.com%3A6969","seeders":1,"leechers":0,"uploader":"kingsaab","files":-1,"time":1317539870,"description":"[CENTER][IMG]http://makeagif.com/media/9-20-2011/9qDvdz.gif[/IMG]\n\n[IMG]http://imedia.cinebasti.com/cb/galery_movies/medium/Force_movie_poster.jpg[/IMG][/CENTER]\n\n[QUOTE]Format : Matroska\nFile size : 696 MiB\nDuration : 2h 8mn\nOverall bit rate : 759 Kbps\nEncoded date : UTC 2011-10-01 19:03:04\nWriting application : mkvmerge v4.9.1 (\\'Ich will\\') built on Jul 11 2011 23:53:15\nWriting library : libebml v1.2.1 + libmatroska v1.1.1\n\nVideo\nID : 1\nFormat : AVC\nFormat/Info : Advanced Video Codec\nFormat profile : &lt;a class=&quot;__cf_email__&quot; href=&quot;/cdn-cgi/l/email-protection&quot; data-cfemail=&quot;551d3c323d1519677b64&quot;&gt;[email&amp;#160;protected]&lt;/a&gt;&lt;script data-cfhash='f9e31' type=&quot;text/javascript&quot;&gt;\n/* &lt;![CDATA[ */!function(){try{var t=&quot;currentScript&quot;in document?document.currentScript:function(){for(var t=document.getElementsByTagName(&quot;script&quot;),e=t.length;e--;)if(t[e].getAttribute(&quot;data-cfhash&quot;))return t[e]}();if(t&amp;&amp;t.previousSibling){var e,r,n,i,c=t.previousSibling,a=c.getAttribute(&quot;data-cfemail&quot;);if(a){for(e=&quot;&quot;,r=parseInt(a.substr(0,2),16),n=2;a.length-n;n+=2)i=parseInt(a.substr(n,2),16)^r,e+=String.fromCharCode(i);e=document.createTextNode(e),c.parentNode.replaceChild(e,c)}t.parentNode.removeChild(t);}}catch(u){}}()/* ]]&gt; */&lt;/script&gt;\nFormat settings, CABAC : Yes\nFormat settings, ReFrames : 4 frames\nFormat settings, GOP : N=1\nMuxing mode : Header stripping\nCodec ID : V_MPEG4/ISO/AVC\nDuration : 2h 8mn\nBit rate : 695 Kbps\nWidth : 640 pixels\nHeight : 288 pixels\nDisplay aspect ratio : 2.222\nFrame rate : 25.000 fps\nColor space : YUV\nChroma subsampling : 4:2:0\nBit depth : 8 bits\nScan type : Progressive\nBits/(Pixel*Frame) : 0.151\nStream size : 623 MiB (90%)\nWriting library : x264 core 116 r2074 2641b9e\n\nAudio\nID : 2\nFormat : MPEG Audio\nFormat version : Version 2\nFormat profile : Layer 3\nMode : Joint stereo\nMode extension : MS Stereo\nMuxing mode : Header stripping\nCodec ID : A_MPEG/L3\nCodec ID/Hint : MP3\nDuration : 2h 8mn\nBit rate mode : Constant\nBit rate : 64.0 Kbps\nChannel(s) : 2 channels\nSampling rate : 24.0 KHz\nCompression mode : Lossy\nDelay relative to video : 20ms\nStream size : 58.7 MiB (8%)\nWriting library : LAME3.98.3[/QUOTE]\n","torrent":{"xt":"urn:btih:1a9d0883bd1f5808d18e4c0202c1bb7efb64f370","amp;dn":"Force+%282011%29+1CD+Rip+PDVD+MP3+Sohi+Mastitorrents","amp;tr":["udp%3A%2F%2Ftracker.openbittorrent.com%3A80","udp%3A%2F%2Fopen.demonii.com%3A1337","udp%3A%2F%2Ftracker.coppersurfer.tk%3A6969","udp%3A%2F%2Fexodus.desync.com%3A6969"],"infoHash":"1a9d0883bd1f5808d18e4c0202c1bb7efb64f370","infoHashBuffer":{"type":"Buffer","data":[26,157,8,131,189,31,88,8,209,142,76,2,2,193,187,126,251,100,243,112]},"announce":[],"urlList":[]}}